<svg version="1.1" id="Layer_1" xmlns="http://www.w3.org/2000/svg" xmlns:xlink="http://www.w3.org/1999/xlink" x="0px" y="0px"
	 width="100%" viewBox="0 0 1024 1024" enable-background="new 0 0 1024 1024" xml:space="preserve">
<path fill="#274472" opacity="1.000000" stroke="none" 
	d="
M704.000000,1025.000000 
	C469.333344,1025.000000 235.166672,1025.000000 1.000000,1025.000000 
	C1.000000,683.666687 1.000000,342.333344 1.000000,1.000000 
	C342.333344,1.000000 683.666687,1.000000 1025.000000,1.000000 
	C1025.000000,342.333344 1025.000000,683.666687 1025.000000,1025.000000 
	C918.166687,1025.000000 811.333313,1025.000000 704.000000,1025.000000 
M994.069458,653.595459 
	C1007.460083,628.141663 1012.641968,601.279602 1006.930908,572.884949 
	C1002.627197,551.486816 993.729187,532.575317 973.844421,521.125183 
	C967.748413,517.614929 960.907288,515.398865 954.326355,512.555115 
	C974.007690,491.232910 981.141602,465.382751 979.726257,436.836334 
	C978.553040,413.171722 971.553223,391.122559 960.329651,370.287689 
	C938.955139,330.609436 906.562988,306.944305 861.271545,302.704163 
	C829.665649,299.745209 799.663208,306.237793 771.379883,320.646545 
	C769.146057,321.784576 766.886292,322.871887 764.405823,324.097778 
	C765.130798,316.887268 766.068115,310.459351 766.373962,304.001495 
	C767.459961,281.068726 763.708252,259.028503 751.670410,239.203339 
	C732.632996,207.850449 703.194946,191.545486 668.322876,184.081299 
	C639.317871,177.872925 610.072693,178.231781 580.878479,182.970764 
	C536.580688,190.161484 496.352417,206.529404 462.465118,236.635696 
	C445.532959,251.678635 431.478699,269.049866 425.512909,291.330719 
	C422.588257,302.253632 421.965454,313.792877 420.316864,324.945007 
	C419.854340,324.633575 418.501221,323.730743 417.156464,322.815674 
	C379.277252,297.039520 338.585754,288.733521 294.220184,302.906281 
	C260.690491,313.617401 235.425659,334.988159 216.459961,364.014801 
	C201.351456,387.138092 190.273758,411.572205 197.735519,440.712341 
	C196.971664,440.488525 196.374863,440.356659 195.809631,440.141815 
	C172.326996,431.214111 149.481476,434.021881 127.676605,445.111237 
	C93.323112,462.582489 70.473625,490.663269 56.019154,525.917664 
	C46.410259,549.353760 43.509491,573.573059 49.742290,598.316772 
	C57.500175,629.114929 78.247688,649.111755 105.546913,663.239685 
	C126.514427,674.090759 149.191711,679.271423 172.332306,682.691284 
	C175.443848,683.151123 176.640747,684.021729 177.275452,687.340210 
	C179.209824,697.454041 181.052612,707.683838 184.234070,717.443726 
	C198.393661,760.881653 225.351166,793.530823 267.154175,812.997437 
	C301.703094,829.085999 337.900299,833.732727 375.361572,826.673767 
	C411.211151,819.918640 441.686401,803.173462 465.878387,775.677185 
	C472.619659,768.015259 478.521576,759.614929 484.982666,751.330139 
	C486.454651,753.355286 487.876404,755.393555 489.380798,757.368958 
	C520.493896,798.222656 558.802246,827.603882 611.638550,833.482483 
	C635.700012,836.159546 658.787964,832.082336 680.718506,821.926941 
	C707.682922,809.440308 730.982544,791.898804 750.775818,769.777161 
	C767.622559,750.948608 781.080383,730.112976 787.511963,705.316467 
	C788.287354,702.327026 788.944946,699.307129 789.726135,696.010376 
	C791.039001,696.708008 791.932434,697.109619 792.751526,697.628540 
	C828.600586,720.343811 867.502258,725.289856 908.390747,716.703735 
	C946.094055,708.786560 975.197266,688.604370 994.069458,653.595459 
z"/>
<path fill="#C2DFE4" opacity="1.000000" stroke="none" 
	d="
M993.917908,653.933167 
	C975.197266,688.604370 946.094055,708.786560 908.390747,716.703735 
	C867.502258,725.289856 828.600586,720.343811 792.751526,697.628540 
	C791.932434,697.109619 791.039001,696.708008 789.726135,696.010376 
	C788.944946,699.307129 788.287354,702.327026 787.511963,705.316467 
	C781.080383,730.112976 767.622559,750.948608 750.775818,769.777161 
	C730.982544,791.898804 707.682922,809.440308 680.718506,821.926941 
	C658.787964,832.082336 635.700012,836.159546 611.638550,833.482483 
	C558.802246,827.603882 520.493896,798.222656 489.380798,757.368958 
	C487.876404,755.393555 486.454651,753.355286 484.982666,751.330139 
	C478.521576,759.614929 472.619659,768.015259 465.878387,775.677185 
	C441.686401,803.173462 411.211151,819.918640 375.361572,826.673767 
	C337.900299,833.732727 301.703094,829.085999 267.154175,812.997437 
	C225.351166,793.530823 198.393661,760.881653 184.234070,717.443726 
	C181.052612,707.683838 179.209824,697.454041 177.275452,687.340210 
	C176.640747,684.021729 175.443848,683.151123 172.332306,682.691284 
	C149.191711,679.271423 126.514427,674.090759 105.546913,663.239685 
	C78.247688,649.111755 57.500175,629.114929 49.742290,598.316772 
	C43.509491,573.573059 46.410259,549.353760 56.019154,525.917664 
	C70.473625,490.663269 93.323112,462.582489 127.676605,445.111237 
	C149.481476,434.021881 172.326996,431.214111 195.809631,440.141815 
	C196.374863,440.356659 196.971664,440.488525 197.735519,440.712341 
	C190.273758,411.572205 201.351456,387.138092 216.459961,364.014801 
	C235.425659,334.988159 260.690491,313.617401 294.220184,302.906281 
	C338.585754,288.733521 379.277252,297.039520 417.156464,322.815674 
	C418.501221,323.730743 419.854340,324.633575 420.316864,324.945007 
	C421.965454,313.792877 422.588257,302.253632 425.512909,291.330719 
	C431.478699,269.049866 445.532959,251.678635 462.465118,236.635696 
	C496.352417,206.529404 536.580688,190.161484 580.878479,182.970764 
	C610.072693,178.231781 639.317871,177.872925 668.322876,184.081299 
	C703.194946,191.545486 732.632996,207.850449 751.670410,239.203339 
	C763.708252,259.028503 767.459961,281.068726 766.373962,304.001495 
	C766.068115,310.459351 765.130798,316.887268 764.405823,324.097778 
	C766.886292,322.871887 769.146057,321.784576 771.379883,320.646545 
	C799.663208,306.237793 829.665649,299.745209 861.271545,302.704163 
	C906.562988,306.944305 938.955139,330.609436 960.329651,370.287689 
	C971.553223,391.122559 978.553040,413.171722 979.726257,436.836334 
	C981.141602,465.382751 974.007690,491.232910 954.326355,512.555115 
	C960.907288,515.398865 967.748413,517.614929 973.844421,521.125183 
	C993.729187,532.575317 1002.627197,551.486816 1006.930908,572.884949 
	C1012.641968,601.279602 1007.460083,628.141663 993.917908,653.933167 
M197.170456,451.037170 
	C182.265366,447.765106 167.565598,448.753601 153.504623,454.487396 
	C113.534813,470.786346 87.653282,500.367889 74.052994,540.884766 
	C68.327522,557.941589 66.936905,575.506592 72.504051,592.968689 
	C79.526573,614.995789 95.372276,629.293274 115.164886,639.650574 
	C137.421921,651.297424 161.399612,657.284912 186.248886,660.040894 
	C195.303680,661.045166 199.247131,665.110901 200.028564,674.062195 
	C203.441101,713.152466 220.501282,745.101257 251.327606,769.247742 
	C280.016266,791.719971 313.200317,800.428772 349.240265,797.905029 
	C390.538361,795.013000 424.987030,778.028625 450.497772,745.042053 
	C457.848389,735.537415 463.045166,724.337891 468.967987,713.768982 
	C472.668610,707.165527 477.780762,702.928894 485.476379,702.600037 
	C492.596497,702.295837 496.003632,707.164612 498.928192,712.735840 
	C509.899933,733.637451 524.340698,751.834351 542.493713,766.913757 
	C566.891968,787.180908 594.275940,800.009583 626.781128,799.500671 
	C645.165588,799.212891 662.252747,794.137085 678.290588,785.447205 
	C703.954285,771.542053 725.241150,752.820068 740.774109,727.870789 
	C756.057068,703.322815 760.317200,677.333557 751.568542,649.437744 
	C748.504883,639.669006 753.957581,631.326233 763.753601,630.017517 
	C773.372498,628.732422 780.962402,631.410400 787.442566,639.374390 
	C794.119507,647.580261 801.610474,655.471985 809.982727,661.885864 
	C836.673584,682.332886 867.172668,688.648682 900.108521,683.361267 
	C916.583435,680.716492 932.326843,675.432983 945.108459,664.335999 
	C973.090637,640.041748 981.649170,608.840759 975.128052,573.198914 
	C972.044006,556.342834 962.999512,543.053345 947.214905,535.151428 
	C939.004761,531.041382 930.189941,529.300659 921.081848,529.608582 
	C913.588623,529.861938 910.582214,524.689880 907.925049,519.307617 
	C905.219055,513.826355 908.428772,509.813141 912.223206,506.170319 
	C915.228333,503.285370 918.144409,500.307495 921.087280,497.358154 
	C938.305115,480.102478 949.018250,460.183502 946.862610,434.906067 
	C945.649658,420.682831 942.284180,407.024078 936.737122,393.877228 
	C918.434692,350.499817 884.659546,328.709778 837.638855,329.960938 
	C811.596069,330.653900 787.131226,337.735046 763.394714,347.987274 
	C758.352478,350.165161 754.392151,352.701080 752.120239,358.182892 
	C749.580994,364.309692 744.622620,365.826385 738.558472,363.828003 
	C737.266541,363.402252 735.648560,363.223450 734.383362,363.604126 
	C731.145630,364.578278 728.224487,363.779266 727.275330,360.856079 
	C726.476746,358.396790 727.051758,355.294403 727.675293,352.630402 
	C728.210632,350.343658 730.310486,348.362305 730.624023,346.094543 
	C732.470642,332.738098 734.434631,319.373596 735.547241,305.944550 
	C738.583618,269.295624 726.045410,240.281677 692.975647,221.817612 
	C672.975281,210.650665 651.123047,206.707336 628.586304,206.245178 
	C599.648926,205.651733 571.582458,211.096436 544.220337,220.156677 
	C512.783813,230.566040 485.226868,247.173035 463.771667,272.805817 
	C448.366882,291.210022 438.827271,312.101074 439.268219,336.631409 
	C439.314117,339.185638 440.714691,341.886627 442.032074,344.210358 
	C444.562042,348.673004 447.971924,352.687286 450.113068,357.306488 
	C452.552429,362.569061 450.027344,369.490021 445.370758,372.868500 
	C440.734344,376.232330 435.923218,376.238403 430.757080,371.906097 
	C422.594177,365.060791 414.851868,357.716827 406.822540,350.708771 
	C365.287903,314.457428 315.526245,313.415497 271.497314,340.783691 
	C248.447327,355.111389 233.322128,376.587494 221.589218,400.638153 
	C214.266235,415.649139 210.109634,430.891754 217.765228,447.132690 
	C218.928665,449.600830 220.002670,452.115784 221.004517,454.653900 
	C221.708038,456.436127 222.218857,458.294434 222.815735,460.118805 
	C220.893234,459.991669 218.774765,460.343872 217.083023,459.652283 
	C210.643433,457.019562 204.341583,454.049896 197.170456,451.037170 
z"/>
<path fill="#274472" opacity="1.000000" stroke="none" 
	d="
M197.579346,451.121643 
	C204.341583,454.049896 210.643433,457.019562 217.083023,459.652283 
	C218.774765,460.343872 220.893234,459.991669 222.815735,460.118774 
	C222.218857,458.294434 221.708038,456.436127 221.004517,454.653900 
	C220.002670,452.115784 218.928665,449.600830 217.765228,447.132690 
	C210.109634,430.891754 214.266235,415.649139 221.589218,400.638153 
	C233.322128,376.587494 248.447327,355.111389 271.497314,340.783691 
	C315.526245,313.415497 365.287903,314.457428 406.822540,350.708771 
	C414.851868,357.716827 422.594177,365.060791 430.757080,371.906097 
	C435.923218,376.238403 440.734344,376.232330 445.370758,372.868500 
	C450.027344,369.490021 452.552429,362.569061 450.113068,357.306488 
	C447.971924,352.687286 444.562042,348.673004 442.032074,344.210358 
	C440.714691,341.886627 439.314117,339.185638 439.268219,336.631409 
	C438.827271,312.101074 448.366882,291.210022 463.771667,272.805817 
	C485.226868,247.173035 512.783813,230.566040 544.220337,220.156677 
	C571.582458,211.096436 599.648926,205.651733 628.586304,206.245178 
	C651.123047,206.707336 672.975281,210.650665 692.975647,221.817612 
	C726.045410,240.281677 738.583618,269.295624 735.547241,305.944550 
	C734.434631,319.373596 732.470642,332.738098 730.624023,346.094543 
	C730.310486,348.362305 728.210632,350.343658 727.675293,352.630402 
	C727.051758,355.294403 726.476746,358.396790 727.275330,360.856079 
	C728.224487,363.779266 731.145630,364.578278 734.383362,363.604126 
	C735.648560,363.223450 737.266541,363.402252 738.558472,363.828003 
	C744.622620,365.826385 749.580994,364.309692 752.120239,358.182892 
	C754.392151,352.701080 758.352478,350.165161 763.394714,347.987274 
	C787.131226,337.735046 811.596069,330.653900 837.638855,329.960938 
	C884.659546,328.709778 918.434692,350.499817 936.737122,393.877228 
	C942.284180,407.024078 945.649658,420.682831 946.862610,434.906067 
	C949.018250,460.183502 938.305115,480.102478 921.087280,497.358154 
	C918.144409,500.307495 915.228333,503.285370 912.223206,506.170319 
	C908.428772,509.813141 905.219055,513.826355 907.925049,519.307617 
	C910.582214,524.689880 913.588623,529.861938 921.081848,529.608582 
	C930.189941,529.300659 939.004761,531.041382 947.214905,535.151428 
	C962.999512,543.053345 972.044006,556.342834 975.128052,573.198914 
	C981.649170,608.840759 973.090637,640.041748 945.108459,664.335999 
	C932.326843,675.432983 916.583435,680.716492 900.108521,683.361267 
	C867.172668,688.648682 836.673584,682.332886 809.982727,661.885864 
	C801.610474,655.471985 794.119507,647.580261 787.442566,639.374390 
	C780.962402,631.410400 773.372498,628.732422 763.753601,630.017517 
	C753.957581,631.326233 748.504883,639.669006 751.568542,649.437744 
	C760.317200,677.333557 756.057068,703.322815 740.774109,727.870789 
	C725.241150,752.820068 703.954285,771.542053 678.290588,785.447205 
	C662.252747,794.137085 645.165588,799.212891 626.781128,799.500671 
	C594.275940,800.009583 566.891968,787.180908 542.493713,766.913757 
	C524.340698,751.834351 509.899933,733.637451 498.928192,712.735840 
	C496.003632,707.164612 492.596497,702.295837 485.476379,702.600037 
	C477.780762,702.928894 472.668610,707.165527 468.967987,713.768982 
	C463.045166,724.337891 457.848389,735.537415 450.497772,745.042053 
	C424.987030,778.028625 390.538361,795.013000 349.240265,797.905029 
	C313.200317,800.428772 280.016266,791.719971 251.327606,769.247742 
	C220.501282,745.101257 203.441101,713.152466 200.028564,674.062195 
	C199.247131,665.110901 195.303680,661.045166 186.248886,660.040894 
	C161.399612,657.284912 137.421921,651.297424 115.164886,639.650574 
	C95.372276,629.293274 79.526573,614.995789 72.504051,592.968689 
	C66.936905,575.506592 68.327522,557.941589 74.052994,540.884766 
	C87.653282,500.367889 113.534813,470.786346 153.504623,454.487396 
	C167.565598,448.753601 182.265366,447.765106 197.579346,451.121643 
M495.218811,661.129639 
	C530.571533,664.268677 565.049988,660.278076 598.352234,647.844849 
	C643.562805,630.965698 678.804626,602.166199 702.112305,559.531372 
	C710.837830,543.570496 716.158569,526.512085 717.023621,508.213776 
	C717.243652,503.559845 715.196594,500.511322 710.572205,499.535095 
	C706.075928,498.585907 703.210083,500.823944 701.521912,504.762665 
	C699.557617,509.345825 697.826599,514.029297 695.847656,518.605896 
	C672.215332,573.257263 632.160522,609.619446 574.880127,626.385620 
	C538.344788,637.079712 501.281342,637.292114 464.126038,629.975708 
	C422.725006,621.823303 384.202362,606.924683 351.488770,579.476318 
	C341.691132,571.255615 332.894287,561.849182 323.482361,553.155579 
	C321.652039,551.464905 319.134247,549.583130 316.866882,549.494446 
	C312.063995,549.306641 309.863525,554.340271 312.126007,559.474792 
	C318.814667,574.654114 328.769958,587.449829 340.875244,598.662842 
	C360.468719,616.812073 383.640839,629.101868 408.020386,639.288513 
	C435.671906,650.842407 464.424957,658.234741 495.218811,661.129639 
M622.563049,434.945709 
	C610.470398,434.436127 598.377686,433.926544 585.763611,433.394989 
	C586.341980,431.750671 586.836121,430.227203 587.409973,428.734344 
	C590.392029,420.976501 593.410400,413.232605 596.381958,405.470795 
	C597.585266,402.327820 598.053040,399.084808 594.829834,396.931152 
	C591.605774,394.776917 588.477417,395.844727 585.721985,398.243408 
	C584.090210,399.663971 582.383545,401.011139 580.855713,402.536682 
	C570.198486,413.178436 564.341858,426.552887 559.504944,440.465210 
	C556.175659,450.041168 561.146729,456.961304 571.327576,457.211853 
	C588.310608,457.629761 605.292358,458.305664 622.276245,458.357178 
	C627.479797,458.372955 632.899414,457.295166 637.805359,455.551361 
	C640.248596,454.682922 643.147278,451.273651 643.312927,448.841553 
	C643.496887,446.141724 641.506409,441.974640 639.210938,440.698822 
	C634.388733,438.018738 628.747498,436.812561 622.563049,434.945709 
M406.350586,473.027649 
	C408.460815,479.949585 412.830688,483.364807 418.333618,482.392883 
	C422.853027,481.594635 424.360077,479.013153 423.955627,470.820190 
	C423.077393,453.030945 421.945404,435.253906 420.851654,417.475891 
	C420.668518,414.498932 420.616364,411.045258 416.718506,410.434418 
	C412.681702,409.801819 410.895416,412.529327 409.563965,415.936310 
	C402.364746,434.357635 401.360443,453.124756 406.350586,473.027649 
z"/>
<path fill="#C1DEE4" opacity="1.000000" stroke="none" 
	d="
M494.760498,661.101685 
	C464.424957,658.234741 435.671906,650.842407 408.020386,639.288513 
	C383.640839,629.101868 360.468719,616.812073 340.875244,598.662842 
	C328.769958,587.449829 318.814667,574.654114 312.126007,559.474792 
	C309.863525,554.340271 312.063995,549.306641 316.866882,549.494446 
	C319.134247,549.583130 321.652039,551.464905 323.482361,553.155579 
	C332.894287,561.849182 341.691132,571.255615 351.488770,579.476318 
	C384.202362,606.924683 422.725006,621.823303 464.126038,629.975708 
	C501.281342,637.292114 538.344788,637.079712 574.880127,626.385620 
	C632.160522,609.619446 672.215332,573.257263 695.847656,518.605896 
	C697.826599,514.029297 699.557617,509.345825 701.521912,504.762665 
	C703.210083,500.823944 706.075928,498.585907 710.572205,499.535095 
	C715.196594,500.511322 717.243652,503.559845 717.023621,508.213776 
	C716.158569,526.512085 710.837830,543.570496 702.112305,559.531372 
	C678.804626,602.166199 643.562805,630.965698 598.352234,647.844849 
	C565.049988,660.278076 530.571533,664.268677 494.760498,661.101685 
z"/>
<path fill="#C1DEE4" opacity="1.000000" stroke="none" 
	d="
M623.002747,434.973541 
	C628.747498,436.812561 634.388733,438.018738 639.210938,440.698822 
	C641.506409,441.974640 643.496887,446.141724 643.312927,448.841553 
	C643.147278,451.273651 640.248596,454.682922 637.805359,455.551361 
	C632.899414,457.295166 627.479797,458.372955 622.276245,458.357178 
	C605.292358,458.305664 588.310608,457.629761 571.327576,457.211853 
	C561.146729,456.961304 556.175659,450.041168 559.504944,440.465210 
	C564.341858,426.552887 570.198486,413.178436 580.855713,402.536682 
	C582.383545,401.011139 584.090210,399.663971 585.721985,398.243408 
	C588.477417,395.844727 591.605774,394.776917 594.829834,396.931152 
	C598.053040,399.084808 597.585266,402.327820 596.381958,405.470795 
	C593.410400,413.232605 590.392029,420.976501 587.409973,428.734344 
	C586.836121,430.227203 586.341980,431.750671 585.763611,433.394989 
	C598.377686,433.926544 610.470398,434.436127 623.002747,434.973541 
z"/>
<path fill="#C0DDE3" opacity="1.000000" stroke="none" 
	d="
M406.239594,472.643738 
	C401.360443,453.124756 402.364746,434.357635 409.563965,415.936310 
	C410.895416,412.529327 412.681702,409.801819 416.718506,410.434418 
	C420.616364,411.045258 420.668518,414.498932 420.851654,417.475891 
	C421.945404,435.253906 423.077393,453.030945 423.955627,470.820190 
	C424.360077,479.013153 422.853027,481.594635 418.333618,482.392883 
	C412.830688,483.364807 408.460815,479.949585 406.239594,472.643738 
z"/>
</svg>